<?xml version="1.0" encoding="UTF-8"?>
<svg id="Capa_1" xmlns="http://www.w3.org/2000/svg" viewBox="0 0 657.63 513.17">
  <defs>
    <style>
      .cls-1 {
        fill: #183e6f;
      }

      .cls-2 {
        fill: #075da1;
      }

      .cls-3 {
        fill: #148bb2;
      }

      .cls-4 {
        fill: #16b8dd;
      }

      .cls-5 {
        fill: #1b3b6a;
      }
    </style>
  </defs>
  <g>
    <g>
      <path class="cls-1" d="M253.49,208.15v6.36c0,16.92-3.51,33.67-10.56,48.92-1.58,3.39-3.32,6.71-5.25,9.94-.75,1.25-1.51,2.46-2.26,3.66-1.08,1.66-2.19,3.28-3.34,4.85-.7.95-1.41,1.88-2.12,2.8-10.82,13.74-24.52,24.09-39.52,31.24-.13-.06-.21-.1-.22-.11-4.22-1.98-8.25-4.22-12.09-6.71l-.02-.02c-.55-.34-1.1-.72-1.64-1.09-.01,0-.01-.02-.02-.02-.62-.4-1.24-.83-1.85-1.27-2.99-2.13-5.85-4.42-8.6-6.89-1.38-1.21-2.73-2.48-4.05-3.82-.22-.22-.44-.44-.66-.67-.23-.22-.45-.44-.66-.66-.88-.89-1.71-1.81-2.55-2.74-.43-.46-.84-.94-1.26-1.42l-.04-.04c-.4-.48-.81-.95-1.22-1.43-1.2-1.46-2.4-2.95-3.55-4.49,0,0,0-.01-.01-.01-.99-1.33-1.98-2.7-2.95-4.1-.89-1.3-1.77-2.63-2.63-4-2.62-4.15-4.96-8.47-6.97-12.92-.43-.95-.86-1.91-1.25-2.86-5.73-13.55-8.74-28.17-9.04-42.97-.02-.88-.04-1.75-.04-2.63v-6.62c2.54,19.3,11.93,32.11,27.56,42.03,9.79,6.22,21.38,9.43,33.8,9.43s24.01-3.22,33.81-9.43c15.61-9.92,26.67-22.99,29.22-42.29Z"/>
      <path class="cls-3" d="M224.07,326.64c-10.74,1.95-22,2.85-33.6,2.85s-23.14-.91-34-2.85h-.01c-10.17-1.8-19.9-4.54-29-8.3-20.37-8.39-37.69-21.93-50.31-41.93-11.54-18.28-17.3-39.69-17.3-61.39v-109.95c0,21.69,5.76,43.11,17.3,61.39,7.89,12.51,18.27,22.49,29.92,30.26,1.16.77,2.34,1.53,3.52,2.26,1.79,1.1,3.6,2.15,5.42,3.16,1.22.66,2.46,1.31,3.7,1.95,1.86.94,3.73,1.84,5.62,2.68,1.26.58,2.53,1.11,3.81,1.64v6.62c0,.88.01,1.75.04,2.63.31,14.81,3.32,29.43,9.04,42.97.39.95.82,1.91,1.25,2.86,2.02,4.45,4.36,8.77,6.97,12.92.86,1.37,1.74,2.7,2.63,4,.97,1.41,1.95,2.77,2.95,4.1.01,0,.01.01.01.01,1.15,1.54,2.35,3.03,3.55,4.49.42.48.82.95,1.22,1.43l.04.04c.42.48.83.95,1.26,1.42.83.93,1.66,1.85,2.55,2.74.21.22.43.44.66.66.22.23.44.45.66.67,1.32,1.33,2.67,2.61,4.05,3.82,2.75,2.47,5.62,4.76,8.6,6.89.61.44,1.22.87,1.85,1.27.01,0,.01.02.02.02.54.37,1.09.75,1.64,1.09l.02.02c3.84,2.48,7.87,4.72,12.09,6.71.01.01.09.05.22.11.01,0,.04.02.05.02,2.26,1.05,18.28,8.39,31.43,10.3.71.1,1.42.28,2.14.4Z"/>
      <path class="cls-2" d="M322.85,104.56v109.95c0,10.84-1.44,21.62-4.34,31.97-2.62,9.4-6.44,18.44-11.47,26.88-12.74,21.38-30.61,35.84-51.8,44.72-9.24,3.88-20.84,6.69-31.18,8.55-.72-.12-1.43-.31-2.14-.4-13.15-1.91-29.17-9.25-31.43-10.3-.01,0-.04-.02-.05-.02,15-7.15,28.71-17.5,39.52-31.24.71-.92,1.42-1.85,2.12-2.8,1.15-1.57,2.26-3.18,3.34-4.85.76-1.2,1.52-2.41,2.26-3.66,1.93-3.23,3.67-6.55,5.25-9.94,7.05-15.25,10.56-32,10.56-48.92v-6.36c1.1-.46,2.19-.93,3.28-1.43.54-.24,1.09-.49,1.63-.75,3.61-1.68,7.16-3.52,10.6-5.56.6-.34,1.19-.7,1.77-1.06.66-.39,1.31-.8,1.96-1.21.61-.39,1.22-.78,1.84-1.19,2.89-1.91,5.7-3.95,8.42-6.13.39-.31.78-.62,1.16-.94.34-.28.69-.56,1.03-.86.55-.45,1.1-.93,1.64-1.41,1.98-1.74,3.9-3.56,5.75-5.46.39-.38.76-.77,1.14-1.16,2.15-2.28,4.23-4.67,6.2-7.18.23-.29.45-.59.69-.88.92-1.21,1.82-2.43,2.69-3.7.33-.46.66-.94.97-1.42.32-.48.64-.97.95-1.44.31-.49.62-.98.93-1.47.32-.49.61-.99.92-1.49.33-.55.65-1.1.97-1.66.77-1.35,1.52-2.72,2.23-4.1.46-.91.93-1.82,1.36-2.74.28-.58.55-1.16.82-1.75.54-1.15,1.05-2.33,1.54-3.52.26-.59.49-1.19.73-1.77.49-1.22.95-2.47,1.4-3.72.4-1.1.78-2.21,1.14-3.33.24-.75.48-1.49.7-2.26.33-1.1.65-2.2.94-3.3.29-1.1.58-2.21.83-3.34.13-.56.26-1.11.38-1.68.12-.56.24-1.11.35-1.68.12-.55.23-1.11.33-1.69.11-.56.21-1.13.31-1.7.33-1.88.61-3.77.86-5.67.06-.48.11-.95.16-1.43.12-1.08.23-2.15.33-3.23.04-.48.07-.94.11-1.42.05-.73.1-1.47.13-2.2.02-.46.05-.93.07-1.41.07-1.75.11-3.5.11-5.25Z"/>
      <path class="cls-2" d="M308.02,161.75c-.32.56-.64,1.11-.97,1.66-.31.5-.6,1-.92,1.49.31-.49.61-.99.91-1.49.33-.55.66-1.11.98-1.66Z"/>
      <path class="cls-4" d="M129.11,0v208.4c-1.27-.53-2.54-1.06-3.81-1.64-1.88-.84-3.76-1.74-5.62-2.68-1.24-.64-2.47-1.28-3.69-1.95-1.82-1-3.63-2.06-5.42-3.16-1.19-.73-2.36-1.49-3.52-2.26-11.65-7.77-22.02-17.75-29.91-30.26-11.54-18.28-17.3-39.69-17.3-61.39v-35.69h-7.02c-3.83,0-6.94-3.14-6.94-7.01V0h83.23Z"/>
      <path class="cls-4" d="M322.85,0v104.56c0,1.75-.04,3.5-.11,5.25-.02.48-.05.94-.07,1.41-.04.73-.09,1.47-.13,2.2-.04.48-.07.94-.11,1.42-.1,1.08-.21,2.15-.33,3.23-.05.48-.1.95-.16,1.43-.24,1.9-.53,3.78-.86,5.67-.1.58-.2,1.14-.31,1.7-.1.58-.21,1.14-.33,1.69-.11.56-.23,1.11-.35,1.68-.12.56-.24,1.11-.38,1.68-.26,1.13-.54,2.24-.83,3.34-.31,1.1-.61,2.21-.94,3.3-.22.77-.45,1.52-.7,2.26-.37,1.11-.75,2.23-1.14,3.33-.44,1.25-.91,2.5-1.4,3.72-.24.59-.48,1.19-.73,1.77-.49,1.2-1,2.37-1.54,3.52-.27.59-.54,1.17-.82,1.75-.43.92-.89,1.84-1.36,2.74-.71,1.38-1.46,2.75-2.23,4.1-.32.56-.64,1.11-.97,1.66-.31.5-.6,1-.92,1.49-.31.49-.62.98-.93,1.47-.32.48-.64.97-.95,1.44-.31.48-.64.95-.97,1.42-.87,1.26-1.77,2.48-2.69,3.7-.23.29-.45.59-.69.88-1.97,2.51-4.05,4.91-6.2,7.18-.38.39-.75.78-1.14,1.16-1.85,1.9-3.77,3.72-5.75,5.46-.54.48-1.09.95-1.64,1.41-.34.29-.69.58-1.03.86-.38.32-.77.64-1.16.94-2.72,2.18-5.53,4.22-8.42,6.13-.61.4-1.22.8-1.84,1.19-.65.42-1.3.82-1.96,1.21-.59.37-1.17.72-1.77,1.06-3.44,2.03-6.99,3.88-10.6,5.56-.54.26-1.09.5-1.63.75-1.09.5-2.18.97-3.28,1.43V6.96c0-.83.67-6.96,7.34-6.96h62.01Z"/>
    </g>
    <g>
      <g>
        <path class="cls-1" d="M587.27,40.37l-23.8,26.25-4.14,4.56-14.27,15.61-2.07,2.28-2.36,2.61c-.21-.15-.42-.29-.62-.4-21-13.86-46.15-21.91-73.18-21.91-18.11,0-28.4,2.72-36.05,4.98-14.06,4.15-23.75,8.46-32.5,16.42-9.76,8.88-17.07,20.37-22.44,32.87-4.02,9.35-6.71,19.42-7.83,29.95.21-3.77.53-7.49.93-11.15.32-2.89.71-5.74,1.19-8.58.02-.12.04-.26.06-.38v-.02c.06-.42.12-.83.2-1.25.01-.07.02-.15.05-.23.06-.42.15-.84.22-1.26.15-.86.31-1.71.47-2.58.65-3.41,1.39-6.78,2.23-10.08.2-.8.4-1.59.61-2.37.81-3.01,1.69-5.96,2.64-8.86.17-.55.37-1.1.55-1.65.18-.53.37-1.05.55-1.58.6-1.71,1.22-3.4,1.88-5.08.28-.72.56-1.43.86-2.14.58-1.43,1.17-2.84,1.79-4.23.37-.83.73-1.65,1.13-2.47.22-.51.46-1.02.7-1.52.02-.05.04-.09.06-.12.4-.86.82-1.7,1.24-2.53.54-1.09,1.09-2.18,1.66-3.24.48-.92.97-1.81,1.46-2.7.22-.39.43-.77.65-1.15.42-.75.84-1.49,1.28-2.23.37-.64.75-1.27,1.14-1.9.38-.64.76-1.26,1.16-1.88.38-.62.78-1.25,1.19-1.86.71-1.08,1.42-2.14,2.14-3.21.73-1.05,1.47-2.09,2.21-3.13.72-.99,1.46-1.97,2.2-2.94.05-.09.12-.18.21-.27.72-.97,1.48-1.92,2.25-2.86.46-.56.92-1.13,1.38-1.69.94-1.11,1.88-2.21,2.85-3.3.46-.54.95-1.08,1.44-1.62h0c.99-1.08,1.98-2.13,2.99-3.17h0c.5-.53,1-1.04,1.52-1.54,1.53-1.54,3.11-3.06,4.71-4.52.54-.49,1.08-.97,1.62-1.46.67-.6,1.35-1.19,2.03-1.77,2.04-1.75,4.14-3.45,6.28-5.09.04-.04.07-.07.11-.09.57-.43,1.14-.86,1.71-1.28.58-.45,1.16-.87,1.75-1.3h.01c.59-.43,1.19-.84,1.77-1.26,1.2-.83,2.41-1.65,3.63-2.46.61-.4,1.22-.8,1.84-1.19.62-.4,1.25-.8,1.87-1.17.72-.44,1.44-.88,2.17-1.3.48-.29.95-.57,1.43-.84,2.61-1.53,5.27-2.97,7.98-4.33,1.33-.67,2.68-1.32,4.03-1.96.67-.32,1.35-.62,2.03-.94.69-.31,1.37-.61,2.06-.92s1.37-.6,2.07-.88c2.08-.88,4.18-1.71,6.31-2.51.71-.27,1.42-.53,2.14-.78.71-.24,1.43-.5,2.15-.75,1.46-.49,2.91-.97,4.37-1.44,1.47-.45,2.94-.89,4.44-1.32,2.23-.62,4.48-1.22,6.77-1.77,1.02-.26,2.03-.5,3.05-.73,1.25-.28,2.5-.55,3.77-.81.76-.16,1.53-.31,2.3-.45,1.09-.2,2.19-.39,3.29-.58.39-.07.8-.13,1.2-.2.1-.02.2-.04.29-.06.01-.01.02-.01.04-.01,17.31,2.5,33.55,6.88,48.36,13.53,13.5,6.08,25.79,14.05,36.61,24.22Z"/>
        <path class="cls-5" d="M491.41,4.72c-1.02.23-2.03.48-3.05.73-2.29.55-4.54,1.15-6.77,1.77,2.23-.64,4.48-1.24,6.75-1.79,1.02-.24,2.03-.49,3.06-.72Z"/>
        <path class="cls-5" d="M502.27,2.63c-.1.02-.2.04-.29.06-.4.06-.81.12-1.2.2.49-.1.99-.18,1.49-.26Z"/>
        <path class="cls-5" d="M540.64,91.67l-.11.12c-.17-.18-.34-.35-.51-.53.21.11.42.26.62.4Z"/>
        <path class="cls-2" d="M300.79,129.09c.05-.33.11-.65.17-.97-.05.33-.11.66-.16,1.01-.01-.01-.01-.02-.01-.04Z"/>
        <path class="cls-2" d="M421.24,255.85c-.06-.01-.12-.02-.18-.05.06.01.12.04.17.04,0,.01.01.01.01.01Z"/>
        <path class="cls-2" d="M491.41,4.72c-1.02.23-2.03.48-3.05.73-2.29.55-4.54,1.15-6.77,1.77,2.23-.64,4.48-1.24,6.75-1.79,1.02-.24,2.03-.49,3.06-.72Z"/>
        <path class="cls-2" d="M502.27,2.63c-.1.02-.2.04-.29.06-.4.06-.81.12-1.2.2.49-.1.99-.18,1.49-.26Z"/>
        <path class="cls-3" d="M527.76,246.52v77.21c-17.96,3.78-36.59,5.76-55.67,5.76-21.14,0-41.73-2.45-61.47-7.06-.01-.01-.02-.01-.04-.01-2.88-.83-5.69-1.75-8.47-2.72-37.41-13.14-67.14-38.26-85.04-72.76-.86-1.63-1.68-3.29-2.47-4.97-5.48-11.5-9.68-23.98-12.42-37.37-.35-1.65-.69-3.33-.98-5-1.44-8.19-2.4-16.68-2.77-25.46-.15-3-.21-6.02-.21-9.09,0-10.88.98-25.7,2.59-35.93.05-.34.11-.67.16-1,.17,1.04.34,2.08.54,3.1.1.55.2,1.09.31,1.63.34,1.82.72,3.61,1.13,5.37.11.53.23,1.06.37,1.59.15.62.29,1.25.45,1.87.16.62.32,1.25.48,1.86.33,1.24.66,2.45,1.02,3.66.7,2.42,1.46,4.82,2.28,7.19.4,1.19.83,2.37,1.26,3.55.33.88.66,1.77,1,2.66.33.89.69,1.77,1.04,2.66,1.06,2.63,2.19,5.21,3.4,7.76,1.42,3.13,2.97,6.18,4.65,9.14.54.97,1.09,1.93,1.64,2.89.29.5.59,1,.89,1.51.05.09.11.18.17.27.56.97,1.15,1.91,1.75,2.85.81,1.3,1.63,2.56,2.48,3.82.4.6.82,1.21,1.24,1.8.29.44.59.86.91,1.28.42.61.86,1.21,1.3,1.8.26.37.53.72.81,1.08.44.61.91,1.22,1.38,1.82,1.36,1.77,2.77,3.51,4.22,5.21.44.54.91,1.08,1.38,1.6.75.88,1.53,1.75,2.33,2.61.81.89,1.64,1.77,2.48,2.64.18.2.35.38.54.55.71.73,1.42,1.46,2.15,2.17.29.29.58.58.87.86.88.84,1.76,1.69,2.67,2.51l.04.04c.87.81,1.75,1.59,2.64,2.37.26.23.51.45.77.67.97.84,1.95,1.66,2.95,2.48.93.76,1.87,1.52,2.83,2.25.29.23.58.45.87.68.92.71,1.85,1.41,2.79,2.09.12.09.24.17.37.26.92.67,1.85,1.33,2.79,1.98.38.27.77.54,1.15.78.97.67,1.95,1.32,2.94,1.96,6.25,4.03,12.86,7.66,19.77,10.83.99.45,1.98.91,2.99,1.33h0c.26.1.53.21.8.33,1.03.44,2.07.88,3.12,1.33,5.02,2.14,10.34,4.27,16.34,6.2,1.1.35,2.23.7,3.39,1.04,1.35.4,2.72.78,4.12,1.15.71.2,1.42.37,2.15.55.06.01.11.02.16.04.06.01.12.04.17.04,0,.01.01.01.01.01.61.15,1.24.29,1.86.44.97.23,1.95.44,2.95.65,1,.22,2.03.42,3.07.61.78.15,1.59.29,2.4.43,1.33.23,2.7.44,4.1.65.38.06.76.11,1.15.17,8.38,1.15,17.95,1.46,29.13,1.46,7.01,0,13.58-.09,19.7-.89,6.95-.91,13.31-2.26,19.06-3.85,9.32-2.59,17.06-5.86,23.09-8.98Z"/>
        <path class="cls-1" d="M611.13,98.49c-.03-.97-1.19-1.46-1.51-.67-10.47,26.14-47.45,29.44-68.58,38.3-22.26,9.33-43.66,25.28-52.96,47.98-1.12,1.03-2.47,2.76-2.11.49,8.13-23.83,28.76-42.36,50.32-50.54,4.75-1.89,14.83-5.19,20.96-6.97,14.39-4.19,25.89-8.87,25.89-8.87,0,0-12.34,3.12-33.47,8.53-17.1,4.38-33.99,11.31-47.01,24.03-9.76,9.53-16.88,22.79-19.82,36.82-.09.31-.14.63-.21.95-.58,3.25-1.05,8.81-1.05,12.48,0,1.6.38,2.64.49,3.05.27.96.56,1.32.84,1.34.67.06,1.26-1.87,1.26-1.87,0,0,.1-.25.27-.7.38-1,.85-1.98,1.41-2.89,14.24-22.87,34.34-27.45,61.37-23.23.5.08.82-.82.41-1.21-3.8-3.64-9.41-5.38-13.78-6.74,18.55-4.84,35.58-7.19,49.25-15.75,17.12-10.71,28.59-32.76,28.05-54.02,0-.16,0-.33-.01-.49Z"/>
      </g>
      <path class="cls-2" d="M502.27,2.63c-.5.07-1,.16-1.49.26-1.11.17-2.2.37-3.29.58-.77.15-1.54.29-2.3.45-1.27.26-2.52.53-3.77.81-1.03.23-2.04.48-3.06.72-2.28.55-4.53,1.15-6.75,1.79-1.51.43-2.97.87-4.44,1.32-1.47.46-2.92.94-4.37,1.44-.72.24-1.44.5-2.15.75-.72.26-1.43.51-2.14.78-2.13.8-4.23,1.63-6.31,2.51-.7.28-1.38.58-2.07.88s-1.37.61-2.06.92c-.68.32-1.36.62-2.03.94-1.35.64-2.69,1.28-4.03,1.96-2.7,1.36-5.37,2.8-7.98,4.33-.48.27-.95.55-1.43.84-.72.42-1.44.86-2.17,1.3-.62.38-1.25.77-1.87,1.17-.61.38-1.24.77-1.84,1.19-1.22.8-2.43,1.61-3.63,2.46-.59.42-1.19.83-1.77,1.26h-.01c-.59.43-1.17.84-1.75,1.3-.58.4-1.15.84-1.71,1.28-.04.01-.07.05-.11.09-2.14,1.63-4.25,3.33-6.28,5.09-.69.59-1.36,1.17-2.03,1.77-.55.47-1.08.95-1.62,1.46-1.6,1.46-3.18,2.97-4.71,4.52-.51.5-1.02,1.02-1.52,1.53t0,.01c-1.03,1.04-2.02,2.09-2.99,3.16h0c-.49.55-.98,1.09-1.44,1.63-.98,1.09-1.92,2.19-2.85,3.3-.48.56-.94,1.13-1.38,1.69-.77.94-1.53,1.9-2.25,2.86-.09.09-.16.18-.21.27-.76.97-1.49,1.95-2.2,2.94-.65.88-1.28,1.77-1.91,2.67-.11.16-.21.31-.31.47-.73,1.06-1.44,2.13-2.14,3.21-.4.61-.81,1.24-1.19,1.86-.4.62-.78,1.25-1.16,1.88-.39.62-.77,1.26-1.14,1.9-.44.73-.87,1.48-1.28,2.23-.22.38-.43.76-.65,1.15-.49.89-.98,1.79-1.46,2.7-.58,1.06-1.13,2.15-1.66,3.24-.42.83-.83,1.68-1.24,2.53-.02.04-.04.07-.06.12-.23.5-.48,1-.7,1.52-.39.82-.76,1.64-1.13,2.47-.61,1.4-1.21,2.8-1.79,4.23-.29.71-.58,1.42-.86,2.14-.66,1.68-1.28,3.36-1.88,5.08-.18.53-.37,1.05-.55,1.58-.18.55-.38,1.1-.55,1.65-.95,2.9-1.84,5.85-2.64,8.86-.21.78-.42,1.58-.61,2.37-.83,3.3-1.58,6.67-2.23,10.08-.16.87-.32,1.73-.47,2.58-.07.42-.16.84-.22,1.26-.02.09-.04.16-.05.23-.07.42-.13.83-.2,1.25v.02c-.02.12-.04.26-.06.38-.48,2.84-.87,5.69-1.19,8.58-.4,3.66-.72,7.38-.93,11.15v.05c-.39,3.63-.59,7.33-.59,11.06,0,3.51.17,6.99.51,10.41,2.62,26.43,11.83,49.92,33.77,66.81,10.01,7.72,21.83,13.45,35.04,16.87-.38-.05-.76-.11-1.14-.16-1.4-.21-2.77-.42-4.1-.65-.81-.13-1.61-.28-2.4-.43-1.04-.2-2.07-.4-3.07-.61-1-.21-1.98-.42-2.95-.65-.62-.15-1.25-.29-1.86-.44,0,0-.01,0-.01-.01-.02,0-.05,0-.07-.01-.02-.01-.06-.01-.1-.02-.05-.01-.1-.02-.16-.04-.73-.18-1.44-.35-2.15-.55-1.41-.37-2.78-.75-4.12-1.15-1.16-.34-2.29-.68-3.39-1.04-6-1.93-11.32-4.06-16.34-6.2-1.05-.45-2.09-.89-3.12-1.33-.27-.12-.54-.24-.8-.35h0c-1-.42-1.99-.87-2.99-1.31-6.91-3.17-13.52-6.8-19.77-10.83-.99-.64-1.97-1.28-2.94-1.96-.39-.26-.77-.51-1.15-.78-.94-.65-1.87-1.31-2.79-1.98-.12-.09-.24-.17-.37-.26-.94-.68-1.87-1.38-2.79-2.09-.29-.23-.58-.45-.87-.68-.95-.73-1.9-1.49-2.83-2.25-1-.82-1.98-1.64-2.95-2.48-.26-.22-.51-.44-.77-.67-.89-.78-1.77-1.57-2.64-2.37l-.04-.04c-.91-.82-1.79-1.66-2.67-2.51-.29-.28-.58-.56-.87-.86-.73-.71-1.44-1.43-2.15-2.17-.18-.17-.35-.35-.54-.55-.84-.87-1.68-1.75-2.48-2.64-.8-.86-1.58-1.73-2.33-2.61-.48-.53-.93-1.06-1.38-1.6-1.46-1.7-2.86-3.44-4.22-5.21-.48-.6-.94-1.21-1.38-1.82-.28-.35-.55-.71-.81-1.08-.44-.59-.88-1.19-1.3-1.8-.32-.43-.61-.84-.91-1.28-.42-.59-.83-1.2-1.24-1.8-.86-1.26-1.68-2.52-2.48-3.82-.17-.26-.33-.51-.49-.78-.43-.69-.86-1.37-1.26-2.07-.06-.09-.12-.18-.17-.27-.31-.5-.6-1-.89-1.51-.55-.95-1.1-1.92-1.64-2.89-1.68-2.96-3.23-6.01-4.65-9.14-1.21-2.55-2.34-5.13-3.4-7.76-.35-.88-.71-1.76-1.04-2.66-.16-.4-.31-.81-.46-1.21-.18-.48-.35-.97-.54-1.44-.43-1.17-.86-2.36-1.26-3.55-.82-2.37-1.58-4.77-2.28-7.19-.35-1.21-.69-2.42-1.02-3.66-.16-.61-.32-1.24-.48-1.86-.16-.62-.31-1.25-.45-1.87-.13-.53-.26-1.06-.37-1.59-.4-1.76-.78-3.55-1.13-5.37-.11-.54-.21-1.08-.31-1.63-.2-1.02-.37-2.06-.54-3.1,3.35-19.57,9.7-33.88,18.62-49.65.2-.33.35-.66.58-.99.87-1.52,1.76-3.01,2.68-4.48C348.69,31.48,393.11,5.59,447.36.8c6.07-.55,12.22-.8,18.53-.8,7.1,0,14.05.22,20.85.71l15.53,1.92Z"/>
      <path class="cls-4" d="M611.24,135.33v73.78c0,4.57-3.41,7.09-7.2,7.09h-6.73v82.42c-7.47,3.94-15.15,7.54-23.01,10.76-12.66,5.22-25.82,9.49-39.37,12.74-2.38.58-4.77,1.12-7.18,1.62v-107.61h-28.22c-1.95,0-4.25-1.52-5.42-3.66-.79-1.45-1.13-3.45-.61-5.1,1.94-6.14,12.43-25.12,52.68-25.12,9.75,0,18.14.81,22.13,1.27.81.1,1.23-.82.7-1.45-1.68-2-3.74-4.18-6.46-6.45-4.57-3.84-6.82-4.28-7.44-4.84,17.71.04,44.75-10.67,56.13-35.44Z"/>
    </g>
  </g>
  <g>
    <g>
      <path class="cls-1" d="M50.6,365.3v29.26c0,5.93,2.97,13.62,12,13.62s12-7.69,12-13.62v-26.85c0-1.33,1.08-2.4,2.4-2.4h4.07v30.27c0,11.06-8.02,18.67-18.47,18.67s-18.47-7.62-18.47-18.67v-30.27h6.47Z"/>
      <path class="cls-1" d="M92.46,365.3h8.49l26.29,39.23h.13v-37.97c0-.7.57-1.27,1.27-1.27h5.21v47.73h-8.22l-26.56-39.23h-.14v39.23h-6.47v-47.73Z"/>
      <path class="cls-1" d="M150.4,365.3h4.24v47.73h-6.47v-45.49c0-1.23,1-2.23,2.23-2.23Z"/>
      <path class="cls-1" d="M164.51,365.3h7.48l14.02,38.83h.13l14.56-38.83h7.08l-18.81,47.73h-6.07l-18.4-47.73Z"/>
      <path class="cls-1" d="M218.91,365.3h30.81v6.07h-24.34v14.22h22.65v6.07h-22.65v15.3h25.55v6.07h-32.02v-47.73Z"/>
      <path class="cls-1" d="M581.48,365.3h30.81v6.07h-24.34v14.22h22.65v6.07h-22.65v15.3h25.55v6.07h-32.02v-47.73Z"/>
      <path class="cls-1" d="M262.26,365.3h16.79c12.2,0,15.3,7.35,15.3,13.35s-4.52,11.8-11.73,12.61l13.55,21.77h-8.09l-12.13-21.03h-7.21v21.03h-6.47v-47.73ZM268.73,386.33h8.49c5.12,0,10.25-1.21,10.25-7.68s-5.12-7.68-10.25-7.68h-8.49v15.37Z"/>
      <path class="cls-1" d="M310.25,403.05c2.29,3.51,6.27,5.12,10.11,5.12,4.25,0,9.5-2.7,9.5-7.96,0-10.99-23.53-4.18-23.53-22.79,0-5.6,4.72-13.35,16.18-13.35,5.19,0,10.18,1.08,13.75,5.46l-5.26,4.79c-1.62-2.49-4.79-4.18-8.49-4.18-7.15,0-9.3,4.31-9.3,7.28,0,12.07,23.53,4.85,23.53,22.04,0,9.24-7.42,14.76-16.58,14.76-6.13,0-12-2.09-15.24-6.61l5.33-4.58Z"/>
      <path class="cls-1" d="M349.11,365.3h4.76v47.73h-6.47v-46.01c0-.95.77-1.71,1.71-1.71Z"/>
      <path class="cls-1" d="M366.14,365.3h16.65c20.16,0,25.08,15.03,25.08,23.86,0,12.2-9.1,23.86-26.16,23.86h-15.57v-47.73ZM372.61,406.96h8.16c10.92,0,20.22-6,20.22-17.8,0-6.07-3.17-17.8-18.67-17.8h-9.71v35.59Z"/>
      <path class="cls-1" d="M432.15,365.3h4.57l20.43,47.73h-7.55l-4.79-11.8h-22.72l-4.72,11.8h-7.55l20.51-46.54c.32-.72,1.03-1.19,1.82-1.19ZM442.45,395.56l-8.9-21.91h-.14l-9.03,21.91h18.07Z"/>
      <path class="cls-1" d="M465.21,365.3h16.65c20.16,0,25.08,15.03,25.08,23.86,0,12.2-9.1,23.86-26.16,23.86h-15.57v-47.73ZM471.68,406.96h8.16c10.92,0,20.22-6,20.22-17.8,0-6.07-3.17-17.8-18.67-17.8h-9.71v35.59Z"/>
      <path class="cls-1" d="M532.12,365.3h16.65c20.16,0,25.08,15.03,25.08,23.86,0,12.2-9.1,23.86-26.16,23.86h-15.57v-47.73ZM538.59,406.96h8.16c10.92,0,20.22-6,20.22-17.8,0-6.07-3.17-17.8-18.67-17.8h-9.71v35.59Z"/>
    </g>
    <g>
      <path class="cls-1" d="M76.67,505.5c-10.39,5.42-21.79,7.68-33.54,7.68-24.95,0-43.13-16.37-43.13-42s18.18-42,43.13-42c12.65,0,23.82,2.82,31.84,10.27l-12.42,13.55c-4.74-4.97-10.5-7.57-19.42-7.57-15.02,0-24.84,10.84-24.84,25.74s9.82,25.74,24.84,25.74c7.68,0,13.32-2.15,16.6-3.95v-12.99h-14.34v-11.65c0-2.55,2.06-4.61,4.61-4.61h26.67v41.78Z"/>
      <path class="cls-1" d="M159.55,480.32c0,18.86-11.52,32.86-33.65,32.86s-33.76-14-33.76-32.86v-49.12h17.61v48.44c0,9.82,6.77,17.28,16.15,17.28s16.03-7.45,16.03-17.28v-44.99c0-1.9,1.54-3.45,3.45-3.45h14.17v49.12Z"/>
      <path class="cls-1" d="M202.95,431.2h11.59l34.78,79.94h-19.87l-6.89-16.94h-31.05l-6.66,16.94h-19.42l33.37-77.21c.72-1.66,2.35-2.73,4.16-2.73ZM206.74,454.46l-9.71,24.84h19.53l-9.82-24.84Z"/>
      <path class="cls-1" d="M266.59,477.04l-30.04-45.84h21.91l16.94,29.92,17.16-28.6c.49-.82,1.37-1.32,2.33-1.32h19.35l-30.03,45.84v34.1h-17.61v-34.1Z"/>
      <path class="cls-1" d="M338.97,431.2h11.63l34.78,79.94h-19.87l-6.89-16.94h-31.05l-6.66,16.94h-19.42l33.39-77.24c.71-1.64,2.32-2.7,4.11-2.7ZM342.81,454.46l-9.71,24.84h19.53l-9.82-24.84Z"/>
      <path class="cls-1" d="M480.91,511.14h-48.44c-24.95,0-43.36-15.24-43.36-40.99,0-24.16,18.97-40.99,42.68-40.99s42.68,16.94,42.68,40.99c0,11.29-4.97,22.36-15.92,27.21v.23h22.36v13.55ZM431.79,494.88c13.44,0,24.39-10.95,24.39-24.73s-10.95-24.73-24.39-24.73-24.39,10.95-24.39,24.73,10.95,24.73,24.39,24.73Z"/>
      <path class="cls-1" d="M557.02,480.32c0,18.86-11.52,32.86-33.65,32.86s-33.76-14-33.76-32.86v-49.12h17.61v48.44c0,9.82,6.77,17.28,16.15,17.28s16.03-7.45,16.03-17.28v-45.14c0-1.82,1.48-3.3,3.3-3.3h14.32v49.12Z"/>
      <path class="cls-1" d="M576.51,431.2h14.16v79.94h-17.61v-76.49c0-1.91,1.55-3.45,3.45-3.45Z"/>
      <path class="cls-1" d="M607.38,431.2h17.61v63.68h32.63v16.26h-50.25v-79.94Z"/>
    </g>
  </g>
</svg>