<?xml version="1.0" encoding="UTF-8"?>
<svg id="Capa_1" xmlns="http://www.w3.org/2000/svg" viewBox="0 0 658.21 384.19">
  <defs>
    <style>
      .cls-1 {
        fill: #183e6f;
      }
    </style>
  </defs>
  <path class="cls-1" d="M575.65,158.19c-17.52,7.34-48.82,24.37-61.85,55.98-.19.18-.38.37-.57.56-.17.17-.38.38-.58.56,8.79-25.65,31.01-47.95,58.02-58.2,5.61-2.23,17.3-6.05,24.28-8.08,16.56-4.82,30.01-10.28,30.14-10.33l-.44-1.35c-.14.04-14.62,3.69-38.88,9.91-23.86,6.11-41.83,15.3-54.93,28.09-11.49,11.22-19.74,26.54-23.21,43.07-.08.27-.13.55-.19.82l-.07.36c-.68,3.77-1.23,10.33-1.23,14.62,0,1.75.37,2.97.54,3.56l.05.18c.26.92.68,1.99,1.59,2.07.03,0,.07,0,.1,0,1.12,0,1.8-1.66,2.09-2.63,0,0,.12-.29.32-.82.45-1.19.99-2.28,1.58-3.23,14.99-24.07,36.09-32.04,70.58-26.65.54.08,1.06-.22,1.33-.76.32-.65.22-1.41-.25-1.87-3.86-3.7-9.17-5.72-13.92-7.25,4.21-1.07,8.37-2.04,12.41-2.99,15.6-3.65,30.34-7.1,42.61-14.78,20.01-12.52,33.55-38.58,32.92-63.38l-.02-.57c-.03-.93-.7-1.75-1.55-1.9-.69-.13-1.31.22-1.57.88-8.99,22.45-35.07,30.2-58.08,37.04-7.73,2.3-15.03,4.47-21.21,7.06ZM656.24,114.61s.11.02.2.09c.07.06.2.21.21.45l.02.57c.62,24.32-12.64,49.87-32.25,62.14-12.07,7.55-26.69,10.98-42.18,14.6-4.81,1.13-9.79,2.29-14.84,3.61l-2.33.65,2.37.74c5.07,1.58,11.39,3.55,15.66,7.64.02.04.01.12-.01.18-35.05-5.45-56.55,2.74-71.86,27.33-.64,1.03-1.21,2.2-1.7,3.48-.2.51-.31.8-.33.86-.19.61-.5,1.27-.72,1.56-.09-.15-.21-.42-.35-.93l-.06-.21c-.17-.56-.48-1.6-.48-3.14,0-4.22.54-10.67,1.2-14.35l.07-.37c.04-.23.08-.45.17-.73,3.38-16.08,11.7-31.54,22.83-42.41,12.92-12.61,30.68-21.68,54.29-27.73,10.81-2.77,19.67-5.03,26.19-6.69-4.97,1.75-11.11,3.78-17.76,5.72-7.01,2.04-18.76,5.88-24.4,8.12-27.42,10.4-49.98,33.07-58.88,59.15l-.03.12c-.08.53-.26,1.64.49,2.02.77.39,1.49-.33,2.49-1.32.22-.22.44-.43.65-.63l.12-.11.06-.15c12.8-31.23,43.8-48.09,61.15-55.35,6.11-2.56,13.38-4.72,21.06-7.01,23.32-6.93,49.75-14.79,58.97-37.89Z"/>
  <path class="cls-1" d="M656.85,157.62c-13.74,29.92-46.05,40.77-64.48,40.77h-1.96s1.39,1.24,1.39,1.24c.28.25.67.44,1.26.73,1.28.62,3.67,1.78,7.41,4.91,2.71,2.26,5.07,4.62,7.41,7.4.13.16.12.31.07.41-.05.09-.13.12-.25.11-3.79-.44-13.88-1.48-25.79-1.48-49.92,0-60.3,24.72-61.87,29.67-.62,1.99-.33,4.48.76,6.48,1.46,2.68,4.37,4.62,6.91,4.62h32.06v34.19c-8.12,4.15-16.96,7.57-26.29,10.18-7.23,2-14.65,3.49-22.05,4.45-7.19.95-14.88,1.03-22.79,1.03-15,0-25.09-.5-33.69-1.67h0c-15.19-3.95-28.8-10.5-40.46-19.48-22.81-17.56-35.55-42.79-38.96-77.12-.39-3.9-.59-7.95-.59-12.03,0-4.31.23-8.6.68-12.83h0c1.27-11.96,4.31-23.6,9.04-34.58,6.73-15.67,15.44-28.43,25.89-37.95,10.6-9.64,22.65-14.53,37.48-18.91,9.42-2.79,21.18-5.77,41.68-5.77,30.21,0,59.43,8.74,84.57,25.31.17.17,1.27.86,1.27.86h0s22.15-24.28,22.15-24.28l32.91-36.31-.51-.48c-12.22-11.49-26.59-21-42.72-28.27-15.45-6.94-32.92-11.99-51.95-15.07l-3.74-.6c-.23-.03-.88-.11-.88-.11l-17.92-2.22c-7.67-.56-15.61-.83-24.28-.83-7.68,0-14.74.3-21.58.93-62.42,5.52-113.4,34.68-143.88,82.17V0h-72.75c-7.54,0-9.24,6.51-9.24,8.8v233.7c-2.66,19.98-13.65,35.86-33.61,48.55-11.19,7.1-24.64,10.85-38.89,10.85s-27.7-3.75-38.88-10.85c-18.84-11.96-28.9-27.31-31.68-48.28v-.42h0V0H0v73.16c0,4.88,3.93,8.86,8.77,8.86h7.45v40.75h0v127.73c0,25.96,6.99,50.75,20.21,71.69,14.02,22.22,33.8,38.7,58.78,48.99,10.4,4.29,21.78,7.55,33.84,9.68h.07c12.3,2.21,25.61,3.32,39.57,3.32s26.89-1.11,39.03-3.3h0s.04,0,.04,0c.03,0,.06,0,.09-.01l3.98-.72h-.08c9.7-1.91,22.12-4.91,32.47-9.26,25.99-10.9,46.34-28.48,60.51-52.24,5.09-8.52,9.17-17.73,12.18-27.38,20.93,38.3,54.56,66.48,97.4,81.52,3.56,1.23,6.75,2.25,9.74,3.13l.25.07c23.35,5.45,47.42,8.21,71.54,8.21,21.85,0,43.64-2.25,64.79-6.7h.59v-.14c2.49-.52,5.04-1.1,7.79-1.77,15.67-3.76,31.1-8.74,45.85-14.82,9-3.69,18.02-7.91,26.79-12.54l.38-.2v-95.46h7.11c4.37,0,9.07-2.8,9.07-8.94v-88.96l-1.36,2.95ZM586.82,20.12c15.77,7.1,29.83,16.36,41.82,27.53l-27.17,29.97-21.38,23.45-4.73,5.21s-.08-.04-.12-.06c-.05-.03-.11-.07-.16-.1h-.02c-25.32-16.72-54.83-25.55-85.33-25.55-20.69,0-32.57,3.01-42.08,5.82-15.02,4.44-27.23,9.4-38.03,19.23-10.6,9.65-19.43,22.58-26.24,38.44-2.55,5.92-4.61,12.02-6.18,18.27.02-.15.04-.3.06-.45.09-.64.18-1.28.27-1.91.04-.29.08-.59.13-.88.14-.92.28-1.83.43-2.73.02-.08.03-.17.05-.27l.05-.3c.06-.46.13-.91.2-1.34l.03-.13s.01-.06.02-.1l.02-.11c.05-.37.12-.74.19-1.11l.06-.33c.14-.8.29-1.61.44-2.42l.11-.57c.73-3.85,1.6-7.78,2.57-11.67.23-.92.47-1.84.72-2.75.89-3.33,1.92-6.78,3.06-10.26.13-.4.26-.8.4-1.2l.87-2.53c.76-2.17,1.47-4.09,2.17-5.88.33-.83.66-1.65,1-2.48.6-1.48,1.27-3.08,2.08-4.93.42-.94.84-1.89,1.3-2.85.2-.46.41-.91.62-1.36l.17-.35s.03-.06.04-.1l.03-.06c.47-.99.95-1.97,1.43-2.93.63-1.27,1.27-2.52,1.92-3.75.56-1.06,1.12-2.1,1.69-3.13.25-.45.49-.89.74-1.34.48-.86.97-1.72,1.49-2.57.42-.73.87-1.47,1.31-2.19l.1-.17c.41-.67.81-1.34,1.26-2.03.43-.71.89-1.43,1.37-2.14.04-.05.07-.1.1-.16l.09-.14c.75-1.14,1.5-2.28,2.27-3.4.85-1.22,1.7-2.43,2.56-3.63.79-1.09,1.61-2.18,2.49-3.33.02-.02.03-.05.05-.07h0s0,0,0,0l.07-.12s.04-.06.09-.1l.09-.1c.84-1.13,1.7-2.2,2.44-3.12.05-.06.1-.12.14-.18.35-.42.69-.83,1.03-1.25l.46-.56s.08-.1.12-.15c.02-.02.03-.04.05-.05,1.25-1.49,2.29-2.68,3.26-3.78.53-.62,1.09-1.24,1.66-1.85l.17-.21c1.08-1.17,2.18-2.32,3.28-3.47l.02-.02.66-.67c.36-.36.71-.73,1.09-1.09,1.71-1.73,3.54-3.49,5.43-5.22l.17-.15c.57-.51,1.14-1.02,1.72-1.54.77-.69,1.55-1.37,2.35-2.05.03-.02.06-.05.08-.07,2.25-1.93,4.66-3.89,7.19-5.85l.09-.06s0,0,0,0h0c.65-.51,1.31-1.01,2-1.51.51-.41,1.04-.79,1.57-1.17l.44-.31c.69-.49,1.37-.98,2.06-1.46.86-.59,1.92-1.32,3.04-2.07.18-.12.35-.24.53-.35.21-.14.42-.28.64-.42.53-.36,1.06-.69,1.59-1.03l.53-.34c.72-.47,1.44-.92,2.17-1.36.83-.51,1.66-1.01,2.51-1.5.54-.34,1.09-.66,1.65-.97,2.97-1.74,6.07-3.43,9.23-5.01,1.55-.77,3.11-1.53,4.66-2.27.57-.27,1.15-.54,1.74-.81l.6-.28c.8-.35,1.6-.71,2.39-1.07.79-.35,1.58-.68,2.4-1.02,2.21-.94,4.6-1.89,7.3-2.9.72-.28,1.44-.54,2.17-.8l.29-.1c.38-.13.77-.27,1.16-.4.44-.16.89-.31,1.33-.46,1.61-.54,3.2-1.07,4.8-1.59l.26-.08c1.7-.52,3.41-1.04,5.15-1.53.76-.22,1.54-.43,2.32-.64,1.99-.54,3.78-1,5.52-1.42l1.4-.35c.71-.17,1.41-.34,2.14-.51,1.43-.32,2.86-.63,4.34-.93.88-.18,1.77-.36,2.65-.53,1.26-.22,2.54-.45,3.83-.66.32-.06.64-.11.97-.17l.49-.09h.03s.18-.04.18-.04h.01c20.57,2.98,39.35,8.24,55.83,15.64ZM467.18,2.34c6.8-.62,13.82-.92,21.45-.92,8.63,0,16.53.27,24.14.82l13.25,1.64c-.27.05-.54.1-.82.15-.9.18-1.79.35-2.67.53-1.48.29-2.93.61-4.4.94-.72.17-1.43.33-2.13.5-.43.1-.86.2-1.28.31l-.15.04c-1.91.46-3.79.96-5.65,1.47-.26.07-.54.15-.8.22-.47.13-.95.26-1.42.39h0c-1.75.5-3.46,1.01-5.19,1.54l-.11.04c-1.62.51-3.29,1.06-4.97,1.64-.45.15-.9.31-1.35.47-.38.13-.77.27-1.16.4l-.3.11c-.74.27-1.48.53-2.2.81-2.72,1.02-5.12,1.97-7.34,2.92-.82.33-1.62.67-2.43,1.03-.79.36-1.59.72-2.39,1.07l-.61.28c-.59.27-1.17.54-1.75.82-1.57.74-3.13,1.5-4.69,2.28-3.18,1.6-6.32,3.3-9.3,5.05-.56.32-1.12.65-1.67.98-.85.49-1.69,1-2.53,1.51-.73.45-1.47.9-2.19,1.37-.6.37-1.38.86-2.14,1.39-.01,0-.03.02-.04.02-.39.25-.78.51-1.16.77-1.03.68-2.05,1.37-3.05,2.08-.63.44-1.26.89-1.89,1.34l-.63.45c-.54.39-1.09.79-1.59,1.18-.67.47-1.33.98-1.99,1.49-.06.04-.11.08-.15.12-2.55,1.94-5.01,3.94-7.32,5.95-.8.68-1.59,1.37-2.36,2.05,0,0-.01.01-.02.01,0,0,0,0,0,0-.02.02-.04.04-.06.06-.62.53-1.21,1.07-1.82,1.63-1.91,1.75-3.76,3.53-5.48,5.26-.54.52-1.06,1.04-1.57,1.58l-.37.39c-1.13,1.15-2.23,2.32-3.29,3.49l-.02.02h0s0,0,0,0h0s-.18.22-.18.22h0c-.26.28-.51.56-.76.84-.04.04-.07.08-.11.12-.21.24-.42.48-.63.71-1.01,1.13-2.05,2.33-3.25,3.77-.03.03-.05.06-.08.09l-.18.22c-.5.59-.98,1.17-1.44,1.75-.78.96-1.7,2.1-2.59,3.31-.12.12-.23.25-.3.39-.9,1.14-1.75,2.29-2.54,3.38-.76,1.03-1.5,2.07-2.21,3.1-.13.17-.23.33-.36.55h0s-.03.06-.05.09c-.8,1.15-1.6,2.35-2.44,3.66-.48.72-.95,1.45-1.38,2.16-.44.68-.85,1.36-1.27,2.05l-.1.16c-.45.72-.9,1.48-1.33,2.21-.52.86-1.02,1.73-1.51,2.6-.25.45-.5.89-.75,1.35-.57,1.04-1.14,2.08-1.7,3.15-.59,1.11-1.21,2.31-1.94,3.78-.48.95-.95,1.94-1.43,2.92-.04.07-.06.13-.09.19l-.17.37c-.22.47-.44.94-.63,1.38-.45.94-.88,1.9-1.32,2.89-.8,1.83-1.48,3.45-2.08,4.94-.34.83-.67,1.66-1,2.5-.71,1.8-1.43,3.74-2.19,5.93l-.88,2.54c-.14.41-.28.82-.4,1.22-1.15,3.5-2.18,6.97-3.08,10.33-.24.92-.49,1.84-.72,2.77-.98,3.92-1.85,7.87-2.59,11.76l-.11.58c-.15.82-.3,1.62-.44,2.43l-.06.33c-.07.37-.14.75-.19,1.12-.02.07-.03.13-.04.19l-.02.1c-.09.49-.16.98-.23,1.47l-.03.22c-.01.07-.02.13-.04.23-.54,3.24-1.01,6.61-1.38,10.01-.48,4.41-.85,8.78-1.08,12.99h0s0,.01,0,.02c-.45,4.2-.68,8.55-.68,12.93,0,4.12.2,8.22.6,12.17,3.45,34.75,16.37,60.29,39.5,78.11,9.09,7.01,19.35,12.55,30.61,16.55-.59-.12-1.17-.24-1.75-.36-1.16-.24-2.3-.48-3.41-.74-.54-.13-1.08-.26-1.63-.39l-.78-.19s0,0-.01,0c-.06-.01-.11-.02-.13-.02l-.36-.09c-.72-.18-1.43-.36-2.14-.55-1.59-.42-3.2-.87-4.76-1.33-1.34-.4-2.65-.79-3.92-1.21-7.53-2.42-14.06-5.11-18.91-7.18l-4.09-1.75s-.02,0-.03-.01c-.08-.04-.17-.08-.25-.11l-1.18-.54v.04c-.68-.3-1.36-.6-2.03-.91l-.42-.19c-7.88-3.61-15.58-7.82-22.89-12.53-1.11-.71-2.22-1.45-3.41-2.27-.45-.29-.88-.59-1.32-.9-1.09-.75-2.16-1.52-3.22-2.29-.1-.07-.2-.14-.3-.21l-.13-.09c-1.09-.79-2.16-1.6-3.21-2.41l-1.02-.8c-1.1-.85-2.19-1.72-3.27-2.6-1.34-1.09-2.41-2-3.44-2.91-.28-.24-.57-.47-.86-.74-1.02-.89-2.01-1.78-2.99-2.68l-.11-.12c-.93-.84-1.84-1.7-2.75-2.57l-.43-.42c-.3-.3-.6-.59-.92-.9-.85-.82-1.67-1.66-2.52-2.54-.18-.17-.35-.35-.59-.61-1.01-1.03-1.97-2.05-2.87-3.06-.92-.98-1.82-1.99-2.7-3.02-.55-.6-1.06-1.22-1.59-1.85-1.73-2.02-3.37-4.05-4.89-6.04-.59-.72-1.13-1.46-1.61-2.11-.32-.4-.62-.8-.92-1.23-.5-.67-1.01-1.36-1.51-2.09-.36-.48-.69-.96-1.04-1.48-.48-.67-.96-1.38-1.43-2.07-.99-1.46-1.93-2.9-2.88-4.43-.2-.29-.37-.58-.56-.89l-.25-.4c-.41-.65-.82-1.31-1.22-2l-.06-.1s-.06-.09-.13-.21c-.36-.58-.69-1.16-1.03-1.73-.64-1.1-1.28-2.23-1.91-3.34-1.97-3.5-3.77-7.05-5.37-10.57-1.37-2.88-2.69-5.9-3.93-8.98-.42-1.01-.82-2.03-1.21-3.08-.09-.23-.17-.46-.26-.68-.07-.2-.15-.4-.22-.6l-.67-1.79c-.49-1.35-.99-2.73-1.46-4.1-.97-2.82-1.85-5.62-2.63-8.34-.39-1.31-.74-2.62-1.1-3.95l-.07-.27c-.18-.71-.37-1.43-.55-2.15-.11-.43-.21-.87-.31-1.3l-.21-.88c-.15-.6-.3-1.22-.42-1.84-.54-2.39-.96-4.36-1.31-6.22-.12-.61-.24-1.23-.35-1.88-.2-.99-.36-1.99-.53-3.01l-.08-.45c.09-.52.19-1.03.29-1.55.16-.89.32-1.78.49-2.65.12-.58.24-1.15.36-1.73.17-.79.33-1.59.5-2.37.14-.62.29-1.21.43-1.82.17-.72.33-1.44.51-2.15.16-.65.34-1.28.51-1.93s.34-1.29.51-1.93c.19-.69.4-1.36.6-2.04.17-.57.33-1.14.5-1.7.23-.75.48-1.48.72-2.22.15-.48.3-.96.46-1.43.26-.77.53-1.53.8-2.29.15-.43.3-.86.45-1.28.29-.79.59-1.57.89-2.35.15-.38.29-.77.44-1.15.31-.8.64-1.58.96-2.37.15-.35.29-.71.43-1.07.35-.84.72-1.67,1.08-2.49.13-.3.25-.6.39-.89.4-.9.82-1.8,1.24-2.7.1-.22.2-.43.3-.65.42-.9.86-1.79,1.29-2.68.11-.22.21-.43.31-.65.46-.94.94-1.87,1.42-2.81.08-.17.17-.33.25-.5.41-.8.84-1.61,1.27-2.41.16-.3.31-.6.47-.89.47-.88.95-1.76,1.44-2.65.12-.22.24-.44.36-.66.61-1.1,1.23-2.21,1.86-3.32.1-.17.19-.33.28-.5.12-.21.23-.42.39-.67.63-1.11,1.3-2.23,2-3.38.36-.59.72-1.18,1.1-1.8C353.14,37.57,404.32,7.9,467.18,2.34ZM250.43,1.42h71.33v83.89c-.36.58-.7,1.14-1.04,1.7-.17.27-.34.56-.5.83-.51.85-.99,1.68-1.46,2.49-.16.24-.29.48-.42.72-.08.15-.17.3-.27.47-1.27,2.24-2.5,4.47-3.68,6.69-7.75,14.51-13.7,28.85-17.3,47.24l-.76,4.11c-.07.33-.13.66-.18.99v.05s0,.14,0,.14c-1.76,11.28-3,28.39-3,41.7,0,3.86.08,7.33.24,10.59.02.46.04.92.07,1.38-.56.68-1.15,1.35-1.73,2.01-.3.34-.58.69-.88,1.02-.92,1.04-1.86,2.06-2.81,3.08-.41.43-.82.85-1.26,1.29-2.1,2.15-4.33,4.27-6.64,6.3-.63.55-1.26,1.1-1.91,1.63-.28.25-.56.48-.84.71l-.34.28c-.43.36-.88.73-1.33,1.08-3.08,2.47-6.35,4.85-9.72,7.08l-2.51,1.61c-.62.39-1.24.78-1.89,1.16-.68.42-1.35.83-2.05,1.22-3.82,2.26-7.94,4.42-12.25,6.42-.48.23-.97.45-1.45.67l-.43.19c-.92.42-1.86.82-2.8,1.23V8.8c0-.07.21-7.37,7.82-7.37ZM129.04,292.24c11.4,7.24,25.11,11.07,39.64,11.07s28.24-3.83,39.66-11.07c17.8-11.32,28.61-25.15,32.84-42.12-.02,11.01-1.35,21.97-3.91,32.51,0,0,0,0,0,.01-.23.92-.47,1.84-.71,2.76-.07.26-.13.52-.2.78-.15.57-.32,1.13-.49,1.69-.17.61-.34,1.21-.52,1.82-.03.11-.07.21-.1.32-1.72,5.65-3.81,11.14-6.25,16.42-1.44,3.09-2.98,6.09-4.59,8.94-.48.86-.97,1.7-1.47,2.53-.05.09-.11.18-.16.27-.71,1.19-1.44,2.35-2.16,3.5-.1.15-.2.32-.29.46-.07.11-.14.21-.21.32-.48.74-.98,1.48-1.48,2.21-.11.16-.22.32-.33.48-.53.77-1.07,1.53-1.62,2.28-.07.1-.15.21-.22.31-.07.1-.16.21-.23.31-.65.89-1.31,1.76-1.97,2.61-.08.1-.16.2-.24.31-7.49,9.51-16.29,17.82-26.31,24.84-.07.05-.15.1-.22.15-.93.65-1.86,1.28-2.8,1.91-.18.12-.37.23-.55.35-.84.55-1.69,1.09-2.54,1.63-.29.18-.6.36-.89.54-.75.46-1.5.91-2.26,1.36-.43.25-.86.49-1.29.73-.64.37-1.29.73-1.94,1.09-.55.3-1.12.59-1.68.89-.54.28-1.07.57-1.61.85-.7.36-1.4.7-2.11,1.04-.38.19-.76.38-1.14.56-1.11-.52-2.21-1.06-3.31-1.62-.07-.04-.15-.07-.22-.11-1.17-.6-2.33-1.22-3.48-1.86,0,0-.02,0-.03-.01-1.15-.63-2.28-1.29-3.4-1.96-.02,0-.03-.02-.05-.03-1.14-.68-2.26-1.38-3.37-2.1l-.1-.07c-.58-.36-1.17-.76-1.74-1.16l-.13-.25h-.23c-.57-.38-1.18-.8-1.95-1.35-.86-.62-1.72-1.24-2.57-1.89-2.54-1.92-5.01-3.96-7.37-6.07-1.56-1.37-3.13-2.85-4.67-4.4-.25-.25-.5-.5-.78-.8-.26-.25-.51-.49-.75-.75-1.06-1.07-2.07-2.19-2.94-3.17-.49-.54-.97-1.09-1.49-1.67-.47-.56-.94-1.11-1.41-1.66-1.62-1.97-2.85-3.52-3.97-5.01v-.48h-.36c-1.16-1.57-2.21-3.03-3.2-4.45-1.08-1.56-2.1-3.12-3.04-4.62-.76-1.2-1.5-2.42-2.22-3.65-2.15-3.68-4.11-7.46-5.84-11.28l-.05-.1c-.48-1.07-.96-2.13-1.4-3.21-6.57-15.55-10.09-32.26-10.45-49.66-.03-.95-.04-1.89-.04-2.84,4.13,17.52,14.1,30.85,30.92,41.54ZM8.77,80.6c-4.05,0-7.35-3.33-7.35-7.43V1.42h95.27v240.32c-1.03-.43-2.23-.94-3.42-1.49-2.17-.97-4.35-2.01-6.49-3.1-1.43-.74-2.86-1.49-4.27-2.25-2.14-1.18-4.25-2.41-6.26-3.65-1.28-.79-2.61-1.65-4.07-2.62-14.32-9.55-25.94-21.31-34.54-34.94-13.08-20.72-19.99-45.25-19.99-70.93v-42.17h-8.87ZM168.68,382.77c-13.89,0-27.14-1.11-39.38-3.3h-.08c-11.93-2.13-23.19-5.35-33.48-9.6-24.7-10.18-44.26-26.47-58.12-48.44-13.08-20.72-19.99-45.25-19.99-70.94v-107.65c.39,2.73.87,5.44,1.42,8.12.05.26.11.51.16.77.28,1.32.57,2.63.89,3.93.03.12.06.25.09.37.36,1.47.74,2.93,1.15,4.38.03.1.06.19.08.29.37,1.3.76,2.6,1.17,3.88.08.26.16.51.25.77.43,1.33.87,2.65,1.34,3.95.02.05.03.09.05.14.51,1.4,1.04,2.8,1.59,4.18.07.17.14.34.21.51.48,1.18.97,2.35,1.48,3.52.11.25.22.5.33.75,1.18,2.65,2.45,5.25,3.8,7.81.11.22.23.43.35.64.58,1.08,1.17,2.15,1.78,3.21.14.24.27.47.41.71.73,1.24,1.47,2.48,2.24,3.7,8.71,13.8,20.47,25.7,34.96,35.37,1.48.98,2.82,1.84,4.11,2.64,2.04,1.26,4.17,2.5,6.33,3.69,1.43.77,2.86,1.52,4.31,2.27,2.17,1.1,4.37,2.15,6.55,3.13,1.38.63,2.78,1.22,4,1.73v7.21c0,1.03.01,2.05.04,3.07.25,12.09,2.01,23.85,5.24,35.12,1.47,5.12,3.24,10.15,5.32,15.06.44,1.08.93,2.16,1.41,3.24l.05.11c2.34,5.15,5.08,10.23,8.15,15.09.48.76.97,1.53,1.49,2.31.51.78,1.04,1.57,1.59,2.36,0,0,.01.02.02.03,1.09,1.59,2.21,3.14,3.41,4.74,0,0,0,0,0,.01l.21.29h0c1.11,1.48,2.34,3.03,3.95,4.99.48.55.95,1.1,1.46,1.71.49.56.98,1.12,1.47,1.66.87.98,1.9,2.11,2.97,3.2.25.26.51.53.77.77.26.27.52.54.78.79,1.56,1.58,3.16,3.08,4.74,4.46,3.18,2.85,6.56,5.56,10.05,8.05.79.57,1.43,1.01,2.03,1.4l.12.24h.22c.55.38,1.12.76,1.68,1.11l.09.07c4.18,2.7,8.57,5.15,13.06,7.31l1.53.75c4.46,2.05,17.95,7.98,30.78,10.87.04,0,.08.02.13.03.39.09.78.17,1.16.25.08.02.16.03.24.05.37.08.73.15,1.1.22.09.02.19.04.28.05.36.07.72.13,1.08.19.08.01.15.03.23.04-10.95,1.74-22.66,2.61-34.87,2.61ZM303.49,317.92c-14.01,23.5-34.14,40.88-59.84,51.66-11.63,4.89-25.94,8.06-35.94,9.87-.06,0-.11-.02-.17-.03-.23-.04-.45-.09-.68-.14-.5-.1-.99-.2-1.48-.27-.02,0-.04,0-.06-.01-.46-.07-.92-.14-1.39-.22,0,0-.01,0-.02,0-.44-.07-.88-.15-1.33-.24-.08-.01-.16-.03-.23-.05-.38-.07-.76-.15-1.15-.23-.09-.02-.18-.04-.27-.06-.38-.08-.76-.16-1.15-.25-.08-.02-.15-.03-.23-.05-.41-.09-.83-.19-1.24-.29-.04-.01-.08-.02-.13-.03-8.13-1.97-16.4-5.07-22.15-7.44,0,0,0,0,0,0-.34-.14-.66-.27-.98-.41,0,0,0,0-.01,0-.31-.13-.62-.26-.91-.38,0,0-.02,0-.02,0-1.54-.66-2.83-1.22-3.78-1.65.41-.2.81-.41,1.22-.62.46-.23.93-.46,1.38-.7.64-.33,1.27-.67,1.9-1,.49-.26.97-.52,1.46-.79.59-.33,1.18-.66,1.76-.99.51-.29,1.01-.58,1.52-.87.55-.32,1.09-.65,1.64-.98.52-.32,1.05-.63,1.56-.96.51-.32,1.01-.64,1.52-.97.54-.35,1.08-.69,1.61-1.05.47-.31.93-.63,1.4-.95.55-.38,1.1-.75,1.65-1.14.43-.31.86-.62,1.29-.93.56-.41,1.13-.82,1.68-1.23.4-.3.79-.6,1.18-.9.57-.44,1.15-.88,1.72-1.33.36-.29.72-.58,1.07-.87.58-.48,1.17-.95,1.74-1.44.32-.27.64-.55.96-.83.6-.52,1.2-1.03,1.78-1.56.28-.25.55-.5.83-.76.62-.56,1.24-1.13,1.84-1.7.23-.22.45-.44.67-.65.64-.62,1.29-1.24,1.92-1.87.16-.16.32-.33.48-.49.69-.7,1.37-1.4,2.04-2.11.05-.05.1-.11.15-.16,2.39-2.56,4.68-5.22,6.85-7.98.08-.11.16-.22.25-.33.72-.93,1.4-1.83,2.04-2.7.06-.08.12-.16.18-.24.06-.08.12-.16.17-.25.56-.76,1.12-1.55,1.68-2.36.12-.17.23-.34.35-.51.5-.72.99-1.47,1.49-2.23.07-.11.15-.22.22-.33.11-.17.21-.34.32-.5.68-1.07,1.43-2.27,2.18-3.53.05-.08.09-.15.14-.23.45-.75.89-1.53,1.34-2.3,1.69-2.98,3.31-6.09,4.8-9.31,2.77-5.99,5.08-12.26,6.93-18.71,3.55-12.33,5.4-25.34,5.4-38.42v-6.92c1.15-.49,2.28-.98,3.39-1.49l.42-.19c.49-.22.99-.44,1.48-.68,4.35-2.02,8.51-4.21,12.36-6.48.71-.4,1.39-.82,2.08-1.24.64-.38,1.27-.78,1.91-1.18l2.53-1.63c3.41-2.26,6.71-4.67,9.82-7.16.46-.36.92-.74,1.36-1.11l.33-.28c.29-.24.58-.48.85-.72.65-.53,1.29-1.09,1.93-1.65,2.34-2.05,4.59-4.19,6.7-6.36.44-.43.86-.87,1.34-1.37.87-.93,1.74-1.88,2.59-2.84.26-.29.52-.59.78-.89.36-.41.72-.82,1.08-1.23,0,.15.02.3.03.46.11,1.92.25,3.84.41,5.75.03.3.05.61.08.91.17,1.93.36,3.86.58,5.78.03.26.06.52.09.78.23,1.97.49,3.94.77,5.9.02.16.05.33.07.49.3,2.05.63,4.1.99,6.13.35,2.02.74,3.99,1.14,5.83,3.14,15.36,8.01,30.02,14.48,43.58,1.05,2.19,1.99,4.09,2.88,5.79.28.55.56,1.09.85,1.63-3.01,10.02-7.21,19.57-12.46,28.38ZM424.74,374.63l-.08-.07h-.19c-2.98-.87-6.16-1.89-9.71-3.11-43.04-15.12-76.73-43.58-97.42-82.31-.33-.62-.65-1.23-.98-1.87-.89-1.69-1.82-3.58-2.86-5.75-6.41-13.45-11.25-28-14.37-43.26-.4-1.84-.78-3.78-1.13-5.79-1.41-7.97-2.39-16.14-2.92-24.33-.07-1.08-.13-2.15-.18-3.23h0s-.02-.28-.02-.28l-.09-1.82h0c-.16-3.19-.23-6.59-.23-10.36,0-.8,0-1.61.01-2.43,0-.28,0-.56.01-.84,0-.55.02-1.1.03-1.65,0-.34.02-.68.02-1.02.01-.51.02-1.02.04-1.54.01-.36.02-.73.04-1.1.02-.5.03-1,.05-1.5.01-.38.03-.76.05-1.15.02-.5.04-.99.06-1.49.02-.39.04-.78.06-1.17.02-.5.05-.99.08-1.49.02-.39.04-.78.06-1.17.03-.51.06-1.01.09-1.52.02-.38.05-.76.07-1.14.03-.52.07-1.05.11-1.57.03-.36.05-.72.08-1.08.04-.57.09-1.13.13-1.69.02-.31.05-.62.07-.93.06-.78.13-1.56.2-2.34,0-.08.01-.16.02-.25.08-.85.15-1.7.24-2.53.03-.27.05-.53.08-.79.06-.56.11-1.13.17-1.68.03-.32.07-.62.1-.94.05-.49.11-.98.17-1.47.04-.33.08-.64.12-.96.05-.46.11-.91.17-1.35.04-.32.08-.64.12-.95.03-.24.07-.48.1-.72.07.39.15.78.22,1.17.35,1.87.77,3.86,1.31,6.25.13.62.28,1.26.43,1.88l.21.86c.1.44.21.88.32,1.32.19.73.37,1.45.56,2.17l.08.28c.36,1.34.72,2.67,1.11,3.98.78,2.73,1.67,5.56,2.65,8.4.48,1.38.97,2.76,1.47,4.14l.31.82c.09.24.18.49.27.73l.05.14c.09.23.18.46.26.69.09.24.18.48.27.7.39,1.05.8,2.08,1.22,3.1,1.25,3.1,2.59,6.15,3.96,9.04,1.61,3.55,3.43,7.14,5.42,10.67.63,1.12,1.27,2.25,1.92,3.36.34.59.69,1.17,1.01,1.68.05.11.12.22.22.38.39.68.81,1.35,1.23,2.01l.24.39c.19.32.38.64.58.92.95,1.53,1.89,2.99,2.89,4.46.47.71.96,1.42,1.43,2.08.35.53.69,1.02,1.05,1.51.49.72,1.01,1.42,1.51,2.09.31.44.63.87.95,1.26.47.64,1.03,1.4,1.62,2.13,1.52,2,3.18,4.05,4.92,6.08.53.64,1.06,1.27,1.61,1.87.88,1.03,1.8,2.06,2.72,3.04.9,1.01,1.88,2.05,2.93,3.11.21.23.41.45.59.61.83.86,1.66,1.71,2.51,2.53.31.31.61.61.92.91l.44.43c.89.85,1.78,1.7,2.7,2.53l.11.11c1.01.94,2.04,1.85,3.07,2.76.3.27.59.52.91.78,1,.88,2.09,1.81,3.44,2.91,1.09.89,2.19,1.76,3.29,2.61l1.02.8c1.07.83,2.16,1.65,3.27,2.45l.42.3c1.07.78,2.16,1.55,3.25,2.3.44.31.91.63,1.34.92,1.19.82,2.31,1.57,3.43,2.28,1.48.95,2.98,1.88,4.49,2.79.66.4,1.33.8,2,1.19,5.38,3.16,10.93,6.06,16.58,8.64.04.02.07.03.11.05l.32.15s.07.03.11.05c.97.44,1.95.89,2.94,1.32l.99.41h0s3.56,1.52,3.56,1.52c.61.26,1.25.53,1.91.81,4.63,1.94,10.49,4.28,17.13,6.42,1.29.42,2.6.82,3.96,1.22,1.58.47,3.2.93,4.8,1.34.71.19,1.43.37,2.16.55l.84.21c.68.16,1.38.33,2.08.49,1.12.26,2.27.51,3.45.75,0,0,.01,0,.02,0,1.12.25,2.23.46,3.55.71.92.18,1.87.35,2.8.51,1.56.26,3.15.51,4.8.75.2.03.4.05.64.09l.69.11c8.69,1.19,18.84,1.7,33.94,1.7,7.96,0,15.7-.08,22.98-1.04,7.46-.97,14.95-2.48,22.25-4.49,9.18-2.56,17.89-5.91,25.91-9.95v87.95c-20.88,4.35-42.4,6.55-63.96,6.55-23.97,0-47.89-2.74-71.09-8.14ZM656.79,243.63c0,5.17-3.96,7.52-7.65,7.52h-8.53v96.03c-8.61,4.53-17.46,8.66-26.29,12.28-14.68,6.05-30.04,11.02-45.64,14.76-2.63.64-5.08,1.2-7.46,1.7v-89.52h0v-35.33h-33.49c-2.02,0-4.46-1.67-5.66-3.88-.9-1.65-1.16-3.76-.65-5.37,1.52-4.79,11.58-28.68,60.51-28.68,11.83,0,21.86,1.03,25.62,1.47.7.08,1.34-.23,1.67-.84.35-.64.26-1.42-.23-2-2.4-2.85-4.81-5.26-7.59-7.58-2.83-2.38-4.93-3.66-6.38-4.43,18.48-.94,47.77-11.65,61.77-38.74v82.63Z"/>
</svg>